HIERARCHY
ROOT Root
{
  OFFSET 0.0 0.0 0.0
  CHANNELS 6 Xposition Yposition Zposition Zrotation Yrotation Xrotation
  JOINT Hips
  {
    OFFSET 0.0 100.0 0.0
    CHANNELS 6 Xposition Yposition Zposition Zrotation Yrotation Xrotation
    JOINT Spine1
    {
      OFFSET -0.013727 5.003763 -0.053727
      CHANNELS 3 Zrotation Yrotation Xrotation
      JOINT Spine2
      {
        OFFSET -0.0 7.125301 -0.029825
        CHANNELS 3 Zrotation Yrotation Xrotation
        JOINT Chest
        {
          OFFSET -1e-06 7.550063 -0.815971
          CHANNELS 3 Zrotation Yrotation Xrotation
          JOINT Neck1
          {
            OFFSET -0.181677 26.311295 -0.553348
            CHANNELS 3 Zrotation Yrotation Xrotation
            JOINT Neck2
            {
              OFFSET -3e-06 7.709397 2.302585
              CHANNELS 3 Zrotation Yrotation Xrotation
              JOINT Head
              {
                OFFSET -5e-06 6.128916 1.953709
                CHANNELS 3 Zrotation Yrotation Xrotation
                JOINT HeadEnd
                {
                  OFFSET 0.003598 16.065403 -1.835379
                  CHANNELS 3 Zrotation Yrotation Xrotation
                }
                JOINT Jaw
                {
                  OFFSET 0.002637 0.475592 3.094941
                  CHANNELS 3 Zrotation Yrotation Xrotation
                }
                JOINT LeftEye
                {
                  OFFSET 3.206381 5.380205 7.586883
                  CHANNELS 3 Zrotation Yrotation Xrotation
                }
                JOINT RightEye
                {
                  OFFSET -3.22244 5.361869 7.558234
                  CHANNELS 3 Zrotation Yrotation Xrotation
                }
              }
            }
          }
          JOINT LeftShoulder
          {
            OFFSET 1.621652 23.237164 5.113413
            CHANNELS 3 Zrotation Yrotation Xrotation
            JOINT LeftArm
            {
              OFFSET 14.919846 2e-06 -5.502326
              CHANNELS 3 Zrotation Yrotation Xrotation
              JOINT LeftForeArm
              {
                OFFSET 28.739307 0.0 -0.002588
                CHANNELS 3 Zrotation Yrotation Xrotation
                JOINT LeftHand
                {
                  OFFSET 27.093981 -1e-06 0.002609
                  CHANNELS 3 Zrotation Yrotation Xrotation
                  JOINT LeftHandThumb1
                  {
                    OFFSET 2.276482 -1.392045 3.191413
                    CHANNELS 3 Zrotation Yrotation Xrotation
                    JOINT LeftHandThumb2
                    {
                      OFFSET 4.012836 -1.828127 1.641654
                      CHANNELS 3 Zrotation Yrotation Xrotation
                      JOINT LeftHandThumb3
                      {
                        OFFSET 2.798515 0.0 -3e-06
                        CHANNELS 3 Zrotation Yrotation Xrotation
                        JOINT LeftHandThumbEnd
                        {
                          OFFSET 3.180793 -4e-06 4e-06
                          CHANNELS 3 Zrotation Yrotation Xrotation
                        }
                      }
                    }
                  }
                  JOINT LeftHandIndex1
                  {
                    OFFSET 3.247555 -0.531998 2.296169
                    CHANNELS 3 Zrotation Yrotation Xrotation
                    JOINT LeftHandIndex2
                    {
                      OFFSET 6.364578 0.01206 0.1786
                      CHANNELS 3 Zrotation Yrotation Xrotation
                      JOINT LeftHandIndex3
                      {
                        OFFSET 3.662364 0.0 0.0
                        CHANNELS 3 Zrotation Yrotation Xrotation
                        JOINT LeftHandIndex4
                        {
                          OFFSET 2.329242 4e-06 4e-06
                          CHANNELS 3 Zrotation Yrotation Xrotation
                          JOINT LeftHandIndexEnd
                          {
                            OFFSET 2.759615 -0.180537 -0.113024
                            CHANNELS 3 Zrotation Yrotation Xrotation
                          }
                        }
                      }
                    }
                  }
                  JOINT LeftHandMiddle1
                  {
                    OFFSET 3.163495 0.240981 1.000332
                    CHANNELS 3 Zrotation Yrotation Xrotation
                    JOINT LeftHandMiddle2
                    {
                      OFFSET 6.19078 -0.259278 -1.002548
                      CHANNELS 3 Zrotation Yrotation Xrotation
                      JOINT LeftHandMiddle3
                      {
                        OFFSET 4.35652 -4e-06 -1e-06
                        CHANNELS 3 Zrotation Yrotation Xrotation
                        JOINT LeftHandMiddle4
                        {
                          OFFSET 2.996877 -8e-06 0.0
                          CHANNELS 3 Zrotation Yrotation Xrotation
                          JOINT LeftHandMiddleEnd
                          {
                            OFFSET 2.304287 -0.294569 -0.031741
                            CHANNELS 3 Zrotation Yrotation Xrotation
                          }
                        }
                      }
                    }
                  }
                  JOINT LeftHandRing1
                  {
                    OFFSET 2.882643 -0.053652 -0.322543
                    CHANNELS 3 Zrotation Yrotation Xrotation
                    JOINT LeftHandRing2
                    {
                      OFFSET 5.854541 -0.486202 -1.373841
                      CHANNELS 3 Zrotation Yrotation Xrotation
                      JOINT LeftHandRing3
                      {
                        OFFSET 4.350578 0.0 3e-06
                        CHANNELS 3 Zrotation Yrotation Xrotation
                        JOINT LeftHandRing4
                        {
                          OFFSET 2.651321 7e-06 2e-06
                          CHANNELS 3 Zrotation Yrotation Xrotation
                          JOINT LeftHandRingEnd
                          {
                            OFFSET 1.936105 0.077687 -7.1e-05
                            CHANNELS 3 Zrotation Yrotation Xrotation
                          }
                        }
                      }
                    }
                  }
                  JOINT LeftHandPinky1
                  {
                    OFFSET 2.8655 -0.310005 -1.600378
                    CHANNELS 3 Zrotation Yrotation Xrotation
                    JOINT LeftHandPinky2
                    {
                      OFFSET 5.087849 -1.331141 -1.77123
                      CHANNELS 3 Zrotation Yrotation Xrotation
                      JOINT LeftHandPinky3
                      {
                        OFFSET 3.070974 4e-06 0.0
                        CHANNELS 3 Zrotation Yrotation Xrotation
                        JOINT LeftHandPinky4
                        {
                          OFFSET 1.549672 0.0 1e-06
                          CHANNELS 3 Zrotation Yrotation Xrotation
                          JOINT LeftHandPinkyEnd
                          {
                            OFFSET 1.944893 -0.157802 0.057219
                            CHANNELS 3 Zrotation Yrotation Xrotation
                          }
                        }
                      }
                    }
                  }
                }
              }
            }
          }
          JOINT RightShoulder
          {
            OFFSET -1.380118 23.180309 5.214158
            CHANNELS 3 Zrotation Yrotation Xrotation
            JOINT RightArm
            {
              OFFSET -15.037196 1.2e-05 -5.545604
              CHANNELS 3 Zrotation Yrotation Xrotation
              JOINT RightForeArm
              {
                OFFSET -28.736639 2e-06 -0.002597
                CHANNELS 3 Zrotation Yrotation Xrotation
                JOINT RightHand
                {
                  OFFSET -27.133619 -0.0 0.002613
                  CHANNELS 3 Zrotation Yrotation Xrotation
                  JOINT RightHandThumb1
                  {
                    OFFSET -2.274032 -1.383988 3.163127
                    CHANNELS 3 Zrotation Yrotation Xrotation
                    JOINT RightHandThumb2
                    {
                      OFFSET -4.011429 -1.827466 1.640914
                      CHANNELS 3 Zrotation Yrotation Xrotation
                      JOINT RightHandThumb3
                      {
                        OFFSET -2.794935 -4e-06 -3e-06
                        CHANNELS 3 Zrotation Yrotation Xrotation
                        JOINT RightHandThumbEnd
                        {
                          OFFSET -3.183852 4e-06 1e-06
                          CHANNELS 3 Zrotation Yrotation Xrotation
                        }
                      }
                    }
                  }
                  JOINT RightHandIndex1
                  {
                    OFFSET -3.253266 -0.520057 2.282866
                    CHANNELS 3 Zrotation Yrotation Xrotation
                    JOINT RightHandIndex2
                    {
                      OFFSET -6.341917 0.012471 0.178266
                      CHANNELS 3 Zrotation Yrotation Xrotation
                      JOINT RightHandIndex3
                      {
                        OFFSET -3.654871 -8e-06 -0.0
                        CHANNELS 3 Zrotation Yrotation Xrotation
                        JOINT RightHandIndex4
                        {
                          OFFSET -2.327586 0.0 1e-06
                          CHANNELS 3 Zrotation Yrotation Xrotation
                          JOINT RightHandIndexEnd
                          {
                            OFFSET -2.76179 -0.180656 -0.113078
                            CHANNELS 3 Zrotation Yrotation Xrotation
                          }
                        }
                      }
                    }
                  }
                  JOINT RightHandMiddle1
                  {
                    OFFSET -3.168106 0.246593 1.00103
                    CHANNELS 3 Zrotation Yrotation Xrotation
                    JOINT RightHandMiddle2
                    {
                      OFFSET -6.180828 -0.258836 -1.000895
                      CHANNELS 3 Zrotation Yrotation Xrotation
                      JOINT RightHandMiddle3
                      {
                        OFFSET -4.348901 0.0 -0.0
                        CHANNELS 3 Zrotation Yrotation Xrotation
                        JOINT RightHandMiddle4
                        {
                          OFFSET -3.00024 -4e-06 -2e-06
                          CHANNELS 3 Zrotation Yrotation Xrotation
                          JOINT RightHandMiddleEnd
                          {
                            OFFSET -2.30252 -0.29437 -0.031706
                            CHANNELS 3 Zrotation Yrotation Xrotation
                          }
                        }
                      }
                    }
                  }
                  JOINT RightHandRing1
                  {
                    OFFSET -2.88569 -0.067952 -0.308858
                    CHANNELS 3 Zrotation Yrotation Xrotation
                    JOINT RightHandRing2
                    {
                      OFFSET -5.854198 -0.48613 -1.373731
                      CHANNELS 3 Zrotation Yrotation Xrotation
                      JOINT RightHandRing3
                      {
                        OFFSET -4.33881 -4e-06 -0.0
                        CHANNELS 3 Zrotation Yrotation Xrotation
                        JOINT RightHandRing4
                        {
                          OFFSET -2.654903 -4e-06 4e-06
                          CHANNELS 3 Zrotation Yrotation Xrotation
                          JOINT RightHandRingEnd
                          {
                            OFFSET -1.933568 0.077527 -5.2e-05
                            CHANNELS 3 Zrotation Yrotation Xrotation
                          }
                        }
                      }
                    }
                  }
                  JOINT RightHandPinky1
                  {
                    OFFSET -2.866425 -0.342796 -1.584145
                    CHANNELS 3 Zrotation Yrotation Xrotation
                    JOINT RightHandPinky2
                    {
                      OFFSET -5.091371 -1.332055 -1.772385
                      CHANNELS 3 Zrotation Yrotation Xrotation
                      JOINT RightHandPinky3
                      {
                        OFFSET -3.062664 -4e-06 1e-06
                        CHANNELS 3 Zrotation Yrotation Xrotation
                        JOINT RightHandPinky4
                        {
                          OFFSET -1.546529 4e-06 -2e-06
                          CHANNELS 3 Zrotation Yrotation Xrotation
                          JOINT RightHandPinkyEnd
                          {
                            OFFSET -1.945119 -0.157718 0.057211
                            CHANNELS 3 Zrotation Yrotation Xrotation
                          }
                        }
                      }
                    }
                  }
                }
              }
            }
          }
        }
      }
    }
    JOINT LeftLeg
    {
      OFFSET 10.043214 -8.434526 2.595655
      CHANNELS 3 Zrotation Yrotation Xrotation
      JOINT LeftShin
      {
        OFFSET -1e-06 -43.221752 -0.802913
        CHANNELS 3 Zrotation Yrotation Xrotation
        JOINT LeftFoot
        {
          OFFSET 1e-06 -42.155094 -3.481523
          CHANNELS 3 Zrotation Yrotation Xrotation
          JOINT LeftToeBase
          {
            OFFSET 0.0 -5.059472 13.231529
            CHANNELS 3 Zrotation Yrotation Xrotation
            JOINT LeftToeEnd
            {
              OFFSET -0.009607 -1.647619 6.513017
              CHANNELS 3 Zrotation Yrotation Xrotation
            }
          }
        }
      }
    }
    JOINT RightLeg
    {
      OFFSET -10.047278 -8.29526 2.620317
      CHANNELS 3 Zrotation Yrotation Xrotation
      JOINT RightShin
      {
        OFFSET 1e-06 -43.362206 -0.805556
        CHANNELS 3 Zrotation Yrotation Xrotation
        JOINT RightFoot
        {
          OFFSET 2e-06 -42.117393 -3.478398
          CHANNELS 3 Zrotation Yrotation Xrotation
          JOINT RightToeBase
          {
            OFFSET -0.0 -5.079609 13.284196
            CHANNELS 3 Zrotation Yrotation Xrotation
            JOINT RightToeEnd
            {
              OFFSET 0.009532 -1.634378 6.460591
              CHANNELS 3 Zrotation Yrotation Xrotation
            }
          }
        }
      }
    }
  }
}
MOTION
Frames: 5
Frame Time: 0.03333333333333333
0.0 0.0 0.0 0.0 -0.0 0.0 -1.250021 100.111153 0.301534 0.622296 -2.829371 4.808685 -0.749635 0.331369 -3.815366 -0.506848 0.167492 -5.720667 -1.067102 -1.88152 8.215345 1.814631 1.638695 -8.968516 -0.663408 -0.129791 -3.730765 2.281374 -4.404119 -3.990726 7.7e-05 -2.2e-05 6e-06 0.00944 0.092613 -0.013486 0.747607 -3.589535 -10.613085 -0.735095 3.76982 -10.568693 -6.18664 -11.535375 3.586626 -17.966812 -68.383652 -31.337574 0.11468 -61.304512 0.717884 41.908913 -13.922276 1.200287 -5.882106 9.861284 0.70259 -10.936874 -0.360575 7.156206 2e-06 8.774828 -1e-06 -16.043678 17.854933 5.517087 -1.844032 2.498504 -2.507279 -10.163602 4.678946 4.621109 -20.976027 -6e-06 4e-06 -21.226286 2.451696 -3.593998 1e-06 -6e-06 -2e-06 -1.362682 2.240799 -0.746324 -21.334917 0.584908 3.008324 -13.821216 -4e-06 4e-06 -23.887173 -0.249079 -0.83948 -59.100952 2.428771 -1.176371 -0.294025 1.679687 0.833256 -14.21821 0.093214 1.300581 -34.212051 -0.287566 0.967174 -20.033215 0.964534 1.212845 -1e-06 -1e-06 1e-06 -3.440389 0.788233 0.501656 -15.928189 -3.16731 2.999707 -6.338828 -1e-06 1e-06 -18.123447 3.648182 -4.90567 -3e-06 1e-06 -3e-06 -4.979555 16.04027 -0.846764 -13.115346 54.63097 -64.561432 -2.192884 51.762791 -1.295621 -9.846162 25.125044 16.986343 2.243541 -5.255037 -3.180159 14.282892 -0.826592 6.952504 -4e-06 -12.690605 1e-06 16.297695 -16.533768 2.034312 1.665668 -1.955921 -2.878301 4.727798 -4.170586 4.993926 11.020526 4e-06 -1e-06 12.109052 -3.735715 -2.866783 0.0 1e-06 1e-06 1.291986 -1.928549 -1.49809 14.800129 0.56747 3.865607 14.242573 -1.341732 -6.660658 19.631969 0.14393 -0.648243 48.728111 -1.210615 -6.526867 0.353028 -1.51115 -0.03194 20.222794 3.684313 2.316629 18.787271 7e-06 2e-06 10.751629 -0.479868 1.397907 0.0 1e-06 -0.0 3.273807 0.305947 -0.580111 21.486818 11.830376 2.266134 8.162928 1e-06 1e-06 18.39908 -3.79898 -4.940573 3e-06 -2e-06 -1e-06 3.009328 24.864519 -3.770784 -0.014297 -0.147277 5.495264 -7.214316 5.539449 -5.09918 1.664014 -1.976199 0.947341 0.0 -0.0 2e-06 -7.323291 -18.053579 -7.530993 0.076572 0.154339 6.505286 8.857675 -0.295963 -1.809981 -1.416763 0.934174 0.931107 -0.0 0.0 -1e-06 
0.0 0.0 0.0 0.0 -0.0 0.0 -1.220621 100.110283 0.381984 0.610574 -2.934667 4.869843 -0.813707 0.320005 -3.807502 -0.509468 0.174209 -5.724311 -1.174599 -1.887661 8.228347 1.767989 1.611624 -8.936855 -0.651794 -0.116646 -3.733078 2.339504 -4.406405 -4.020586 7.7e-05 -2.2e-05 6e-06 0.011311 0.096671 -0.01425 0.753326 -3.586445 -10.614582 -0.737051 3.774866 -10.572075 -6.137492 -11.53086 3.634176 -17.741505 -68.514061 -31.444012 0.292262 -61.296654 0.675004 41.746674 -13.78138 1.185296 -5.882104 9.861283 0.702589 -10.936868 -0.360577 7.156203 -0.0 8.774823 -2e-06 -16.029173 17.879145 5.53947 -1.844032 2.498503 -2.507276 -10.163598 4.678942 4.621109 -20.976021 -3e-06 3e-06 -21.226282 2.451695 -3.593999 1e-06 -5e-06 -2e-06 -1.362682 2.240797 -0.746323 -21.334906 0.584908 3.008323 -13.821213 -4e-06 2e-06 -23.887167 -0.24908 -0.839481 -59.101593 2.440161 -1.177594 -0.294025 1.679687 0.833256 -14.218205 0.093214 1.300582 -34.212048 -0.287562 0.96717 -20.033211 0.964534 1.212843 -1e-06 -1e-06 1e-06 -3.440388 0.788233 0.501656 -15.928183 -3.167309 2.999707 -6.338826 -1e-06 1e-06 -18.123444 3.648183 -4.905669 -3e-06 1e-06 -3e-06 -5.111154 15.990379 -0.865853 -13.111984 54.524723 -64.95755 -2.083508 51.786694 -1.274526 -9.974481 25.153358 17.010456 2.243539 -5.255035 -3.180157 14.282885 -0.826591 6.952501 0.0 -12.6906 -2e-06 16.322329 -16.516636 1.978527 1.665665 -1.95592 -2.878297 4.727796 -4.170587 4.99392 11.020519 3e-06 0.0 12.109043 -3.735714 -2.866781 0.0 0.0 1e-06 1.291984 -1.928549 -1.498086 14.800122 0.567468 3.865609 14.242566 -1.341738 -6.660654 19.631958 0.143925 -0.648242 48.740841 -1.19804 -6.534456 0.35303 -1.511149 -0.031941 20.222778 3.684311 2.316631 18.787266 3e-06 2e-06 10.751621 -0.47987 1.397907 -0.0 1e-06 -1e-06 3.273804 0.305947 -0.580109 21.486803 11.830368 2.266137 8.162923 1e-06 2e-06 18.399071 -3.798987 -4.94057 3e-06 -1e-06 -1e-06 2.984685 24.824514 -3.735473 -0.008429 -0.144402 5.430308 -7.186019 5.666436 -5.145714 1.665332 -1.973827 0.978133 -0.0 -0.0 2e-06 -7.324805 -18.055273 -7.520037 0.073591 0.144279 6.397546 8.90365 -0.243706 -1.771024 -1.414989 0.920771 0.963572 -0.0 0.0 -1e-06 
0.0 0.0 0.0 0.0 -0.0 0.0 -1.19283 100.106049 0.467641 0.589702 -3.056827 4.932276 -0.872906 0.302178 -3.795641 -0.51114 0.167135 -5.735915 -1.283859 -1.891638 8.252386 1.732432 1.586889 -8.911548 -0.638422 -0.08924 -3.732213 2.411185 -4.382587 -4.063472 7.7e-05 -2.2e-05 6e-06 0.012396 0.097517 -0.013295 0.75759 -3.585889 -10.613077 -0.73901 3.775614 -10.575708 -6.052225 -11.508003 3.649832 -17.676609 -68.606529 -31.489464 0.319685 -61.375622 0.782713 41.574856 -13.609199 1.11742 -5.882106 9.861287 0.702591 -10.936877 -0.360576 7.156211 2e-06 8.774824 -2e-06 -15.999771 17.910097 5.581375 -1.844033 2.498505 -2.507278 -10.163603 4.678941 4.621111 -20.97603 -4e-06 8e-06 -21.226292 2.451696 -3.593997 0.0 -7e-06 -2e-06 -1.362681 2.240797 -0.746323 -21.334925 0.584906 3.008329 -13.821221 -5e-06 6e-06 -23.887182 -0.249077 -0.839476 -59.085979 2.464541 -1.157007 -0.294025 1.679687 0.833255 -14.218215 0.093212 1.300583 -34.212067 -0.287566 0.967181 -20.033224 0.964538 1.21285 -1e-06 -1e-06 1e-06 -3.440389 0.788232 0.501656 -15.928192 -3.167312 2.999711 -6.338829 -1e-06 3e-06 -18.123451 3.648182 -4.905667 -3e-06 2e-06 -3e-06 -5.215745 15.903154 -0.840172 -13.234816 54.492928 -65.599777 -1.877856 51.800735 -1.19572 -10.131097 25.168697 17.046541 2.24354 -5.255039 -3.180158 14.282903 -0.82659 6.952511 -6e-06 -12.690612 -1e-06 16.33922 -16.495749 1.916634 1.665665 -1.955922 -2.878299 4.727802 -4.170588 4.993927 11.020534 9e-06 2e-06 12.109055 -3.735713 -2.866781 1e-06 0.0 -0.0 1.291986 -1.92855 -1.49809 14.800138 0.567476 3.865613 14.242579 -1.341732 -6.660657 19.631979 0.143933 -0.648236 48.695404 -1.188037 -6.52768 0.353027 -1.511152 -0.03194 20.222803 3.68432 2.316638 18.787285 7e-06 7e-06 10.751636 -0.479867 1.397912 0.0 1e-06 -0.0 3.273808 0.305949 -0.58011 21.486834 11.83039 2.266144 8.162931 4e-06 3e-06 18.399092 -3.798986 -4.940569 3e-06 -1e-06 -1e-06 2.97148 24.77001 -3.729455 -0.002829 -0.137942 5.434124 -7.159478 5.812245 -5.231979 1.665624 -1.967355 1.018349 0.0 1e-06 2e-06 -7.315205 -18.078943 -7.529815 0.072852 0.140282 6.327827 8.948469 -0.177921 -1.746222 -1.412548 0.909553 0.996577 -0.0 0.0 -1e-06 
0.0 0.0 0.0 0.0 -0.0 0.0 -1.163275 100.103149 0.56009 0.559643 -3.207609 4.991722 -0.923766 0.280579 -3.772354 -0.518046 0.149758 -5.745793 -1.390246 -1.892799 8.268796 1.719985 1.578896 -8.859708 -0.629905 -0.047042 -3.727885 2.483019 -4.33446 -4.076442 7.7e-05 -2.2e-05 6e-06 0.012424 0.092923 -0.014269 0.760311 -3.591363 -10.614799 -0.741455 3.771397 -10.582837 -5.917484 -11.458088 3.638607 -17.740458 -68.670685 -31.54986 0.190265 -61.545483 0.94715 41.394573 -13.449344 1.026237 -5.88211 9.861295 0.70259 -10.936875 -0.360574 7.156208 -0.0 8.77483 -1e-06 -15.958297 17.932417 5.618336 -1.844033 2.498506 -2.507279 -10.163604 4.678948 4.621111 -20.976034 -1e-06 4e-06 -21.226297 2.451703 -3.594003 -1e-06 -7e-06 -1e-06 -1.362682 2.2408 -0.746323 -21.334925 0.584911 3.008326 -13.82122 -2e-06 2e-06 -23.88718 -0.249076 -0.839483 -59.068077 2.480531 -1.142855 -0.294024 1.679688 0.833257 -14.218214 0.093216 1.300582 -34.212063 -0.287558 0.967171 -20.033222 0.96454 1.212844 -1e-06 -0.0 0.0 -3.44039 0.788234 0.501655 -15.928194 -3.16731 2.999708 -6.338829 1e-06 2e-06 -18.123457 3.648188 -4.905674 -4e-06 -0.0 -3e-06 -5.303171 15.802604 -0.799689 -13.43319 54.514713 -66.277313 -1.730384 51.817528 -1.168019 -10.272638 25.182665 17.094286 2.24354 -5.255036 -3.180161 14.282889 -0.826594 6.952504 0.0 -12.690603 -1e-06 16.331049 -16.491554 1.881607 1.665665 -1.955922 -2.878299 4.727798 -4.170588 4.993925 11.020524 2e-06 -1e-06 12.109051 -3.735715 -2.866783 1e-06 0.0 1e-06 1.291986 -1.92855 -1.498091 14.800127 0.567467 3.865607 14.24257 -1.341737 -6.660658 19.631968 0.143925 -0.648246 48.656021 -1.18712 -6.51509 0.353029 -1.51115 -0.031941 20.222788 3.684308 2.31663 18.78727 4e-06 -1e-06 10.751627 -0.479869 1.397905 0.0 0.0 -1e-06 3.273808 0.305947 -0.580109 21.486809 11.83037 2.266132 8.162925 -0.0 1e-06 18.399078 -3.798984 -4.940575 3e-06 -2e-06 -1e-06 2.968956 24.726015 -3.697169 0.003586 -0.1306 5.41243 -7.127626 5.986169 -5.315267 1.666388 -1.95616 1.037885 -0.0 -0.0 2e-06 -7.299951 -18.106548 -7.510461 0.078215 0.139815 6.19988 8.98805 -0.096698 -1.691224 -1.4106 0.903345 1.032743 -0.0 0.0 -1e-06 
0.0 0.0 0.0 0.0 -0.0 0.0 -1.128342 100.10804 0.65384 0.525513 -3.395117 5.046083 -0.971526 0.261082 -3.743725 -0.528348 0.128592 -5.750314 -1.492874 -1.890474 8.270948 1.726316 1.579003 -8.769034 -0.619375 0.000967 -3.725412 2.56206 -4.250067 -4.022799 7.7e-05 -2.2e-05 6e-06 0.012047 0.087681 -0.014945 0.763072 -3.596594 -10.612934 -0.744773 3.765424 -10.583594 -5.73046 -11.405965 3.635005 -17.720051 -68.704391 -31.780762 -0.040774 -61.748264 1.151482 41.230133 -13.311544 0.974405 -5.882113 9.861295 0.70259 -10.936885 -0.360578 7.156215 1e-06 8.774831 -4e-06 -15.928862 17.94976 5.638434 -1.844033 2.498507 -2.507279 -10.163614 4.678948 4.621114 -20.976051 -4e-06 9e-06 -21.226311 2.451702 -3.594001 -1e-06 -5e-06 -1e-06 -1.362683 2.2408 -0.746324 -21.334942 0.584907 3.008332 -13.821235 -3e-06 6e-06 -23.887201 -0.249077 -0.839476 -59.049881 2.483432 -1.153736 -0.294025 1.679688 0.833256 -14.218227 0.093214 1.300585 -34.212093 -0.287563 0.967181 -20.033237 0.96454 1.21285 -1e-06 -1e-06 1e-06 -3.440393 0.788235 0.501657 -15.928206 -3.167316 2.999715 -6.338833 -2e-06 3e-06 -18.123466 3.648185 -4.905672 -3e-06 1e-06 -3e-06 -5.41449 15.670925 -0.758406 -13.650986 54.592564 -66.848289 -1.761072 51.849941 -1.266854 -10.406028 25.147913 17.048813 2.243542 -5.255038 -3.18016 14.282897 -0.826591 6.952508 -3e-06 -12.69061 -2e-06 16.313854 -16.499023 1.886397 1.665666 -1.955922 -2.878299 4.727801 -4.170588 4.993925 11.020529 5e-06 -0.0 12.109056 -3.735714 -2.866785 1e-06 0.0 0.0 1.291986 -1.928549 -1.49809 14.800134 0.567473 3.865609 14.242576 -1.341737 -6.660658 19.631973 0.143928 -0.648242 48.639896 -1.187566 -6.49842 0.353027 -1.511151 -0.031941 20.222799 3.684315 2.316636 18.787279 8e-06 4e-06 10.751631 -0.479867 1.397909 0.0 0.0 -1e-06 3.273807 0.305948 -0.580109 21.48683 11.830384 2.266141 8.16293 2e-06 1e-06 18.399088 -3.798983 -4.940573 3e-06 -1e-06 -1e-06 2.970515 24.738132 -3.574343 0.00818 -0.124195 5.23873 -7.082898 6.164542 -5.329294 1.666288 -1.940293 1.05103 0.0 -0.0 2e-06 -7.282474 -18.130255 -7.411052 0.083068 0.141947 5.900711 9.035967 -0.027201 -1.550306 -1.408959 0.905749 1.057793 -0.0 0.0 -1e-06 
